<?xml version="1.0" encoding="utf-8"?>
<!-- Generator: Adobe Illustrator 22.0.1, SVG Export Plug-In . SVG Version: 6.00 Build 0)  -->
<svg version="1.1" baseProfile="basic" id="Layer_1"
	 xmlns="http://www.w3.org/2000/svg" xmlns:xlink="http://www.w3.org/1999/xlink" x="0px" y="0px" viewBox="0 0 1024 1024"
	 xml:space="preserve">
<g>
	<g>
		<polygon fill="#FFFFFF" points="393.166,558.063 512.001,676.898 585.423,603.476 630.835,558.063 512.001,439.229 		"/>
		<polygon fill="#FFFFFF" points="279.493,558.063 336.33,501.227 512.001,325.555 715.827,529.382 853.24,662.876 910.544,229 
			512,74.941 113.456,229 171.217,666.339 		"/>
		<polygon fill="#FFFFFF" points="688.081,614.495 614.25,688.322 512.001,790.571 336.33,614.9 187.561,763.665 512,949.059 
			839.708,761.797 		"/>
	</g>
	<g>
		<polygon fill="#F1F2F2" points="512.001,439.229 393.166,558.063 512.001,676.898 513.635,675.264 513.635,440.863 		"/>
		<polygon fill="#F1F2F2" points="512,74.941 113.456,229 171.217,666.339 279.493,558.063 336.33,501.227 512.001,325.555 
			513.635,327.189 513.635,75.573 		"/>
		<polygon fill="#F1F2F2" points="512.001,790.571 336.33,614.9 187.561,763.665 512,949.059 513.635,948.125 513.635,788.937 		"/>
	</g>
</g>
</svg>
